<svg width="71" height="95" viewBox="0 0 71 95" fill="none" xmlns="http://www.w3.org/2000/svg">
<path fill-rule="evenodd" clip-rule="evenodd" d="M0.908997 0.576758V30.3658H4.801C6.3458 25.5326 10.0056 22.1455 14.2763 22.1455C19.9431 22.1455 24.5333 28.1145 24.5333 35.4945C24.5333 42.8743 19.9427 48.8615 14.2763 48.8615C10.0053 48.8615 6.3456 45.4568 4.801 40.623H0.908997V70.412H30.717V74.3039C25.8832 75.8485 22.4784 79.5081 22.4784 83.779C22.4784 89.4457 28.4657 94.036 35.8454 94.036C43.2254 94.036 49.1944 89.4455 49.1944 83.779C49.1944 79.5083 45.8073 75.8486 40.974 74.3039V70.412H70.746V0.575958L0.908997 0.576758Z" fill="url(#paint0_linear)"/>
<defs>
<linearGradient id="paint0_linear" x1="0.999999" y1="69.5" x2="69" y2="2.5" gradientUnits="userSpaceOnUse">
<stop stop-color="#895FE0"/>
<stop offset="1" stop-color="#724AC7"/>
</linearGradient>
</defs>
</svg>
