<svg width="70" height="95" viewBox="0 0 70 95" fill="none" xmlns="http://www.w3.org/2000/svg">
<path fill-rule="evenodd" clip-rule="evenodd" d="M69.912 94.25V64.461H66.02C64.4752 69.2942 60.8154 72.6813 56.5447 72.6813C50.8779 72.6813 46.2877 66.7123 46.2877 59.3323C46.2877 51.9525 50.8783 45.9653 56.5447 45.9653C60.8157 45.9653 64.4754 49.37 66.02 54.2038H69.912V24.4148H40.104V20.5229C44.9378 18.9783 48.3426 15.3187 48.3426 11.0478C48.3426 5.3811 42.3553 0.790802 34.9756 0.790802C27.5956 0.790802 21.6266 5.3813 21.6266 11.0478C21.6266 15.3185 25.0137 18.9782 29.847 20.5229V24.4148H0.0750122V94.2508L69.912 94.25Z" fill="url(#paint0_linear)"/>
<defs>
<linearGradient id="paint0_linear" x1="70" y1="1" x2="-0.999994" y2="96" gradientUnits="userSpaceOnUse">
<stop stop-color="#CE6C98"/>
<stop offset="1" stop-color="#AC5B7F"/>
</linearGradient>
</defs>
</svg>
